<svg version="1.1" id="Layer_1" xmlns:x="ns_extend;" xmlns:i="ns_ai;" xmlns:graph="ns_graphs;" xmlns="http://www.w3.org/2000/svg" xmlns:xlink="http://www.w3.org/1999/xlink" x="0px" y="0px" viewBox="0 0 480 77" style="enable-background:new 0 0 480 77;" xml:space="preserve">
 <style type="text/css">
  .st0{fill:#017EFF;}
	.st1{fill-rule:evenodd;clip-rule:evenodd;fill:#0E1318;}
 </style>
 <metadata>
  <sfw xmlns="ns_sfw;">
   <slices>
   </slices>
   <sliceSourceBounds bottomLeftOrigin="true" height="77" width="480" x="-300" y="0.1">
   </sliceSourceBounds>
  </sfw>
 </metadata>
 <g>
  <rect y="69.3" class="st0" width="77" height="7.7">
  </rect>
  <path class="st1" d="M243.9,48.6l5.2-3.9c3.6,5.5,8.9,10.2,16.5,10.2c7,0,11.9-3.9,11.9-9.9c0-5.5-4-7.6-9.9-10.4l-6.6-3.1
		c-6.2-3-13.4-7.1-13.4-15.9c0-9.4,8.3-15.5,17.9-15.5c8.1,0,14.9,4.2,18.6,10.1L279,14c-3.2-4.8-8.2-7.5-13.6-7.5
		c-5.5,0-10.5,2.8-10.5,8.6c0,5.4,4.1,7.4,9.5,10l6.6,3.1c8.6,4.1,13.8,8.5,13.8,16.5c0,10-8.2,16.5-19.1,16.5
		C256.3,61.4,248.5,56.5,243.9,48.6z M302.3,34.5H330c-0.1-8.1-6.1-12.6-13-12.6C309.6,21.9,303.8,27,302.3,34.5z M336.6,40.6H302
		c0.9,8.7,7.5,14.4,16.1,14.4c5.5,0,9.8-2.3,13.4-5.9l4,4.7c-4.4,4.7-10.3,7.6-17.5,7.6c-13.2,0-23.2-10-23.2-22.8
		c0-12.8,9.8-22.9,22.4-22.9c11.2,0,19.9,8.1,19.9,19.8C337.1,37.8,336.8,39.7,336.6,40.6z M385.4,32.9v27.5h-6.9V33.7
		c0-6.9-4.1-11.7-10.9-11.7c-6.7,0-11.5,4.9-11.5,11.7v26.7h-6.9V16.6h6.5v4.7c3.1-3.5,7.8-5.7,13.5-5.7
		C379.5,15.6,385.4,22.7,385.4,32.9z M395.9,52.9l4.4-4.6c3.6,3.8,7.3,6.7,12.6,6.7c4.6,0,8.4-2.2,8.4-6.2c0-3.8-3.2-5.2-7.6-7
		l-4.2-1.8c-6.6-2.8-10.9-5.9-10.9-12.1c0-7.9,6.7-12.2,14.7-12.2c6.3,0,11.2,2.7,14.6,6.9l-4.2,4.3c-2.9-3-6.6-4.9-10.8-4.9
		c-4.1,0-7.3,1.9-7.3,5.5c0,3,2.2,4.3,7.1,6.4l4,1.7c7.8,3.3,11.6,6.7,11.6,12.9c0,8.5-7.3,12.9-15.4,12.9
		C405.3,61.4,399.4,57.6,395.9,52.9z M445.1,34.5h27.7c-0.1-8.1-6.1-12.6-13-12.6C452.5,21.9,446.6,27,445.1,34.5z M479.4,40.6
		h-34.6c0.9,8.7,7.5,14.4,16.1,14.4c5.5,0,9.8-2.3,13.4-5.9l4,4.7c-4.4,4.7-10.3,7.6-17.5,7.6c-13.2,0-23.2-10-23.2-22.8
		c0-12.8,9.8-22.9,22.4-22.9c11.2,0,19.9,8.1,19.9,19.8C480,37.8,479.6,39.7,479.4,40.6z M26.5,0L0,60.4h13l3.3-7.7h24.2l3.3,7.7h13
		L30.5,0H26.5z M28.5,22.7l7.9,20H20.6L28.5,22.7z M123,38.2c0-7.6-5.1-12.3-11.5-12.3c-5.6,0-11.2,3.7-11.2,12.2
		c0,8.5,5.6,12.3,11.2,12.3C117.8,50.4,123,45.8,123,38.2z M113.8,61.5c-5.5,0-10.1-2-13.3-5.4V77H88.3V15.9h11.1v5.6
		c3.1-4.2,8.2-6.6,14.3-6.6c12.6,0,21.5,9.8,21.5,23.2C135.3,51.5,126.3,61.5,113.8,61.5z M222.5,43.8v-0.5H213
		c-4,0-6.2,1.5-6.2,4.5c0,3.1,2.6,4.9,6.4,4.9C218.3,52.6,222.5,49,222.5,43.8z M234.6,34v26.4h-11.1v-4.3
		c-3.1,3.3-7.8,5.4-13.6,5.4c-9.7,0-15.4-5.8-15.4-13.3c0-8.1,6.6-12.9,16.8-12.9h11.1v-2c0-4.9-2.8-7.8-8.3-7.8
		c-4.8,0-8.1,2.2-11.8,6.1l-6.3-7.5c5.2-6.2,11.6-9.2,19.4-9.2C226.9,14.9,234.6,21.3,234.6,34z M64.2,60.4h12.1V0H64.2V60.4z
		 M169.1,14.9c-5,0-9.2,1.8-12.2,4.8V0h-12.1v60.4h12.1V34.5c0-5.1,3.5-8.6,8.4-8.6c4.9,0,8.3,3.4,8.3,8.6v25.9h12V32.8
		C185.7,22.1,179.3,14.9,169.1,14.9z">
  </path>
 </g>
</svg>