<?xml version="1.0" encoding="utf-8"?>
<!-- Generator: Adobe Illustrator 16.0.0, SVG Export Plug-In . SVG Version: 6.00 Build 0)  -->
<!DOCTYPE svg PUBLIC "-//W3C//DTD SVG 1.1//EN" "http://www.w3.org/Graphics/SVG/1.1/DTD/svg11.dtd">
<svg version="1.1" id="Layer_1" xmlns="http://www.w3.org/2000/svg" xmlns:xlink="http://www.w3.org/1999/xlink" x="0px" y="0px"
	 width="2571.258px" height="406.165px" viewBox="0 0 2571.258 406.165" enable-background="new 0 0 2571.258 406.165"
	 xml:space="preserve">
<g>
	<path fill-rule="evenodd" clip-rule="evenodd" fill="#FEFEFE" d="M177.142,341.416c-3.275,0.066-6.257-0.776-9.113-2.454
		c-31.256-18.347-62.559-36.618-93.807-54.98c-5.758-3.384-8.72-8.576-8.746-15.329c-0.016-4.453-0.003-8.905-0.003-13.358
		c0-39.419-0.039-78.838,0.039-118.257c0.013-6.594,2.618-11.846,8.656-15.338c31.314-18.106,62.536-36.371,93.837-54.5
		c5.797-3.357,11.842-3.17,17.64,0.114c12.69,7.189,25.372,14.394,37.94,21.792c6.492,3.821,12.701,3.692,19.093-0.031
		c10.459-6.094,20.964-12.11,31.443-18.171c2.84-1.643,5.741-3.2,8.456-5.033c3.346-2.256,3.27-5.74-0.018-8.091
		c-0.826-0.592-1.732-1.078-2.619-1.585c-31.263-17.896-62.519-35.809-93.805-53.669c-5.914-3.376-11.966-3.365-17.905,0.023
		C118.004,31.198,67.782,59.86,17.568,88.535c-6.161,3.517-9.186,9-9.332,15.986c-0.116,5.539,0.164,11.084,0.165,16.626
		C8.417,181.15,8.43,241.156,8.386,301.159c-0.006,7.265,3.107,12.534,9.313,16.101c6.449,3.706,12.908,7.396,19.362,11.09
		c43.604,24.959,87.202,49.927,130.822,74.854c2.841,1.623,5.85,2.966,9.264,2.879c3.751,0.366,7.193-0.506,10.427-2.438
		c3.126-1.867,6.243-3.753,9.388-5.582c32.759-19.029,65.571-37.965,98.367-56.927c14.065-8.133,28.171-16.195,42.177-24.428
		c5.665-3.331,8.731-8.386,8.728-15.125c-0.014-21.17-0.004-42.339-0.006-63.509c-0.001-40.509,0.023-81.019-0.038-121.528
		c-0.009-6.179-2.887-11.012-7.939-14.541c-1.28-0.896-2.567-0.95-4.094-0.325c-5.429,2.222-10.26,5.514-15.298,8.42
		c-44.171,25.491-88.302,51.05-132.448,76.582c-6.077,3.515-9.181,8.8-9.223,15.771c-0.087,14.017-0.062,28.032-0.077,42.047
		c-0.003,1.824-0.118,3.661,0.053,5.469c0.31,3.295,2.464,4.682,5.562,3.855c3.499-0.934,6.443-2.932,9.52-4.709
		c29.452-17.033,58.923-34.036,88.384-51.052c1.074-0.622,2.157-1.209,3.369-1.524c2.033-0.529,3.778,0.26,4.773,2.101
		c0.657,1.217,0.643,2.536,0.643,3.838c-0.013,22.191-0.011,44.382-0.088,66.573c-0.023,6.339-2.912,11.306-8.33,14.458
		c-32.09,18.664-64.245,37.218-96.362,55.835C182.29,340.703,179.813,341.355,177.142,341.416z"/>
	<path fill-rule="evenodd" clip-rule="evenodd" fill="#E0595D" d="M68.185,127.197c-1.826,2.799-2.666,6.104-2.673,9.84
		c-0.078,39.418-0.039,78.838-0.039,118.257c0,4.453-0.013,8.906,0.003,13.358c0.026,6.753,2.988,11.944,8.746,15.329
		c31.248,18.362,62.551,36.633,93.807,54.98c2.856,1.678,5.838,2.521,9.113,2.454c0.002,21.556,0.003,43.112,0.006,64.668
		c-3.414,0.087-6.423-1.256-9.264-2.879c-43.62-24.927-87.218-49.895-130.822-74.854c-6.454-3.695-12.913-7.384-19.362-11.09
		c-6.206-3.567-9.319-8.836-9.313-16.101C8.43,241.156,8.417,181.15,8.401,121.147c-0.001-5.542-0.281-11.088-0.165-16.626
		c0.068-3.252,0.761-6.177,2.102-8.731"/>
	<path fill-rule="evenodd" clip-rule="evenodd" fill="#F15E5F" d="M10.338,95.79c1.54-2.933,3.937-5.375,7.23-7.255
		C67.782,59.86,118.004,31.198,168.23,2.548c5.939-3.388,11.991-3.399,17.905-0.023c31.286,17.86,62.542,35.772,93.805,53.669
		c0.887,0.507,1.793,0.994,2.619,1.585c3.287,2.351,3.363,5.834,0.018,8.091c-2.715,1.833-5.616,3.39-8.456,5.033
		c-10.479,6.061-20.984,12.077-31.443,18.171c-6.392,3.724-12.601,3.853-19.093,0.031c-12.568-7.398-25.25-14.603-37.94-21.792
		c-5.798-3.284-11.843-3.471-17.64-0.114c-31.301,18.129-62.522,36.394-93.837,54.5c-2.615,1.513-4.589,3.357-5.983,5.498"/>
	<path fill-rule="evenodd" clip-rule="evenodd" fill="#EF7677" d="M177.147,406.083c-0.003-21.556-0.004-43.112-0.006-64.668
		c2.671-0.06,5.148-0.712,7.491-2.071c32.117-18.617,64.272-37.171,96.362-55.835c5.418-3.152,8.307-8.118,8.33-14.458
		c0.077-22.191,0.075-44.382,0.088-66.573c0-1.303,0.015-2.621-0.643-3.838c-0.995-1.841-2.74-2.63-4.773-2.101
		c-1.212,0.315-2.295,0.903-3.369,1.524c-29.461,17.016-58.932,34.019-88.384,51.052c-3.076,1.778-6.021,3.775-9.52,4.709
		c-3.098,0.827-5.252-0.56-5.562-3.855c-0.171-1.809-0.056-3.645-0.053-5.469c0.016-14.015-0.01-28.03,0.077-42.047
		c0.042-6.971,3.146-12.256,9.223-15.771c44.146-25.532,88.277-51.091,132.448-76.582c5.038-2.907,9.869-6.199,15.298-8.42
		c1.526-0.625,2.813-0.571,4.094,0.325c5.053,3.528,7.931,8.362,7.939,14.541c0.062,40.509,0.037,81.02,0.038,121.528
		c0.002,21.169-0.008,42.338,0.006,63.509c0.004,6.739-3.063,11.794-8.728,15.125c-14.006,8.233-28.111,16.295-42.177,24.428
		c-32.796,18.962-65.608,37.898-98.367,56.927c-3.145,1.828-6.262,3.715-9.388,5.582
		C184.341,405.577,180.898,406.45,177.147,406.083z"/>
</g>
<g>
	<path d="M860.862,266.055c-2.915-4-8.317-7.273-12.004-7.273c-3.688,0-6.704,4.05-6.704,9v76.276c0,4.95-4.05,9-9,9h-57.841
		c-4.95,0-9-4.05-9-9V65.405c0-4.95,4.05-9,9-9h100.577c4.95,0,13.04,0.283,17.978,0.628c0,0,25.875,1.81,40.685,7.029
		c35.45,12.491,59.354,40.913,60.537,89.972c0,54.888-22.206,85.894-58.24,97.209l75.268,94.768
		c3.079,3.876,1.548,7.048-3.402,7.048h-75.438c-4.95,0-11.386-3.273-14.302-7.273L860.862,266.055z M886.148,194.256
		c47.347,0,47.347-67.879,0-67.879h-34.994c-4.95,0-9,4.05-9,9v49.879c0,4.95,4.05,9,9,9H886.148z"/>
</g>
<g>
	<path d="M1311.636,343.641c1.852,5.179-1.135,9.417-6.635,9.417h-60.446c-5.5,0-11.387-4.281-13.082-9.513l-9.538-29.446
		c-1.695-5.232-3.886-11.994-4.867-15.026c-0.982-3.032-6.286-5.513-11.786-5.513h-59.194c-5.5,0-10.734,2.372-11.633,5.271
		s-2.965,9.57-4.593,14.824l-9.249,29.852c-1.627,5.253-7.459,9.552-12.959,9.552h-60.448c-5.5,0-8.518-4.249-6.706-9.442
		l96.902-277.77c1.812-5.193,7.794-9.442,13.294-9.442h48.298c5.5,0,11.514,4.238,13.365,9.417L1311.636,343.641z M1187.263,226.938
		c5.5,0,8.963-4.379,7.696-9.731l-15.926-67.271c-1.267-5.352-2.774-9.731-3.351-9.731s-2.144,4.364-3.483,9.699l-16.914,67.336
		c-1.34,5.334,2.063,9.699,7.563,9.699H1187.263z"/>
</g>
<g>
	<path d="M1522.044,195.094c40.641,20.531,45.67,58.661,41.896,81.286c-7.541,47.768-39.804,76.678-105.586,76.678h-111.092
		c-5.5,0-10-4.5-10-10V66.405c0-5.5,4.5-10,10-10h98.997c5.5,0,14.482,0.395,19.962,0.878c0,0,20.815,1.834,33.762,7.005
		c32.846,13.115,53.848,42.049,52.645,82.622C1552.212,160.317,1543.41,184.201,1522.044,195.094z M1456.26,172.469
		c36.452,0,37.712-52.795,0-52.795h-33.575c-5.5,0-10,4.5-10,10v32.795c0,5.5,4.5,10,10,10H1456.26z M1456.26,287.273
		c45.251,0,44.413-60.752,0-60.752h-33.575c-5.5,0-10,4.5-10,10v40.752c0,5.5,4.5,10,10,10H1456.26z"/>
</g>
<g>
	<path fill="#F15E5F" d="M1654.228,250.201c0.799,0.162,2.289,1.852,3.313,3.756c0,0,0,0,0.32,1.025
		c6.153,19.629,24.058,27.685,40.909,27.685c18.438,0,36.035-11.314,36.035-28.493V132.189c0-5.5-4.5-10-10-10h-47.46
		c-5.5,0-10-4.5-10-10V64.31c0-5.5,4.5-10,10-10h121.626c5.5,0,10,4.5,10,10v179.865c0,5.5-0.451,14.478-1.002,19.95
		c0,0-1.704,16.936-6.525,28.277c-4.822,11.342-11.758,21.25-20.219,29.642c-21.751,21.576-53.568,33.11-85.388,33.11
		c-29.372,0-58.606-9.407-79.753-29.333c-7.772-7.325-14.455-16.072-19.646-26.295c-5.268-10.368-8.667-25.945-8.667-25.945
		c-1.173-5.374,2.274-10.683,7.661-11.798l44.283-9.17c5.387-1.115,10.528-2.18,11.427-2.367S1653.43,250.04,1654.228,250.201z"/>
</g>
<path fill="#F15E5F" d="M1836.118,154.033c0-68.298,61.179-101.818,122.771-101.818c61.594,0,123.184,33.938,123.184,101.818
	v101.398c0,67.879-61.173,101.816-122.765,101.816c-61.597,0-123.19-33.938-123.19-101.816V154.033z M1911.124,255.431
	c0,21.787,24.302,32.263,48.185,32.263c23.88,0,47.765-10.895,47.765-32.263V154.033c0-23.047-24.719-33.521-49.024-33.521
	c-23.462,0-46.925,11.731-46.925,33.521V255.431z"/>
<g>
	<path fill="#F15E5F" d="M2476.621,169.654c-5.364-1.217-14.088-3.415-19.388-4.885c0,0-11.523-3.195-18.385-7.699
		c-2.901-1.905-5.308-4.018-7.148-6.358c-0.861-1.094-1.6-2.237-2.205-3.436c-1.168-2.297-1.168-2.297-1.168-2.297
		c-0.464-2.856-0.688-7.031-0.495-9.279c0,0,0,0,0.45-1.856c0.548-2.258,1.357-4.332,2.4-6.221c1.998-3.614,4.846-6.551,8.332-8.808
		c7.668-4.968,18.422-6.642,29.965-4.982c15.002,2.157,35.922,17.521,35.922,17.521c4.434,3.255,11.631,3.18,15.995-0.167
		l31.72-24.333c4.363-3.348,4.99-9.49,1.393-13.649c0,0-14.62-16.902-26.082-23.844c-21.4-12.964-44.109-17.144-67.343-17.144
		c-54.469,0-107.265,30.587-107.265,88.828c0,56.566,43.578,86.733,91.344,94.275c24.303,3.353,51.535,12.989,50.699,29.749
		c-1.369,20.801-29.111,27.922-56.498,20.295c-8.864-2.469-17.693-6.482-25.576-12.075c-4.047-2.872-7.846-6.159-11.274-9.868
		c-0.267-0.291-1.269-0.985-2.192-1.6c-0.897-0.598-0.897-0.598-0.897-0.598c-0.452-0.286-1.491-0.219-2.31,0.148
		s-4.77,3.747-8.78,7.51l-29.735,27.894c-4.012,3.763-4.238,10.146-0.504,14.184c0,0,17.012,18.397,30.559,26.994
		c20.222,12.833,42.301,19.295,63.631,19.295c54.471,0,114.809-31.425,117.322-88.828c1.566-34.077-9.132-56.254-26.367-71.194
		C2523.105,180.203,2476.621,169.654,2476.621,169.654z"/>
</g>
<g>
	<path d="M662.619,125.129c-0.493,0.983-1.727,1.439-2.74,1.013c0,0-26.425-11.099-41.983-11.119h-3.874
		c-1.101,0-2.896,0.083-3.991,0.185c0,0-18.767,1.739-28.157,5.227c-11.542,4.286-21.927,10.953-30.558,19.403
		c-16.104,15.769-26.105,37.748-26.125,62.063v3.714c0,1.1,0.098,2.895,0.219,3.988c0,0,2.467,22.478,7.261,33.246
		c4.099,9.202,9.749,17.562,16.615,24.745c15.809,16.535,38.077,26.84,62.753,26.87h3.873c1.1,0,2.896-0.083,3.991-0.185
		c0,0,19.889-1.844,29.989-5.845c8.652-3.425,16.753-8.259,23.958-14.375v-38.746c0-1.1-0.899-2-2-2h-54.354c-1.1,0-2-0.9-2-2
		v-53.135c0-1.1,0.9-2,2-2h111.474c1.101,0,2,0.9,2,2v117.253c0,1.1-0.613,2.659-1.362,3.464l-4.925,5.297
		c-0.749,0.806-1.991,2.107-2.761,2.894c0,0-4.994,5.102-8.391,8.114c-10.189,9.036-21.544,16.528-33.691,22.319
		c-19.15,9.128-40.278,14.022-61.938,14.054h-3.872c-1.101,0-2.897-0.072-3.993-0.16c0,0-28.009-2.25-41.824-6.672
		c-19.126-6.121-36.517-16.128-51.238-29.094c-12.726-11.207-23.459-24.62-31.599-39.644
		c-11.023-20.348-17.294-43.649-17.322-68.411v-3.715c0-1.1,0.062-2.898,0.138-3.995c0,0,1.633-23.768,4.916-35.819
		c2.309-8.478,5.374-16.646,9.115-24.427c5.716-11.887,13.017-22.87,21.625-32.673c26.382-30.046,65.064-49.025,108.183-49.072
		h3.872c1.1,0,2.898,0.042,3.998,0.093c0,0,15.369,0.718,23.829,2.266c13.589,2.489,26.709,6.908,38.968,13.086
		c2.201,1.108,2.843,2.81,2.843,2.81c0.389,1.029,0.303,2.675-0.19,3.659L662.619,125.129z"/>
	<path fill="none" stroke="#000000" stroke-width="12" stroke-miterlimit="10" d="M662.619,125.129
		c-0.493,0.983-1.727,1.439-2.74,1.013c0,0-26.425-11.099-41.983-11.119h-3.874c-1.101,0-2.896,0.083-3.991,0.185
		c0,0-18.767,1.739-28.157,5.227c-11.542,4.286-21.927,10.953-30.558,19.403c-16.104,15.769-26.105,37.748-26.125,62.063v3.714
		c0,1.1,0.098,2.895,0.219,3.988c0,0,2.467,22.478,7.261,33.246c4.099,9.202,9.749,17.562,16.615,24.745
		c15.809,16.535,38.077,26.84,62.753,26.87h3.873c1.1,0,2.896-0.083,3.991-0.185c0,0,19.889-1.844,29.989-5.845
		c8.652-3.425,16.753-8.259,23.958-14.375v-38.746c0-1.1-0.899-2-2-2h-54.354c-1.1,0-2-0.9-2-2v-53.135c0-1.1,0.9-2,2-2h111.474
		c1.101,0,2,0.9,2,2v117.253c0,1.1-0.613,2.659-1.362,3.464l-4.925,5.297c-0.749,0.806-1.991,2.107-2.761,2.894
		c0,0-4.994,5.102-8.391,8.114c-10.189,9.036-21.544,16.528-33.691,22.319c-19.15,9.128-40.278,14.022-61.938,14.054h-3.872
		c-1.101,0-2.897-0.072-3.993-0.16c0,0-28.009-2.25-41.824-6.672c-19.126-6.121-36.517-16.128-51.238-29.094
		c-12.726-11.207-23.459-24.62-31.599-39.644c-11.023-20.348-17.294-43.649-17.322-68.411v-3.715c0-1.1,0.062-2.898,0.138-3.995
		c0,0,1.633-23.768,4.916-35.819c2.309-8.478,5.374-16.646,9.115-24.427c5.716-11.887,13.017-22.87,21.625-32.673
		c26.382-30.046,65.064-49.025,108.183-49.072h3.872c1.1,0,2.898,0.042,3.998,0.093c0,0,15.369,0.718,23.829,2.266
		c13.589,2.489,26.709,6.908,38.968,13.086c2.201,1.108,2.843,2.81,2.843,2.81c0.389,1.029,0.303,2.675-0.19,3.659L662.619,125.129z
		"/>
</g>
<g>
	<path fill="#F15E5F" d="M2291.276,195.094c40.64,20.531,45.668,58.661,41.897,81.287c-7.542,47.768-39.806,76.678-105.589,76.678
		h-111.092c-5.5,0-10-4.5-10-10V66.405c0-5.5,4.5-10,10-10h98.998c5.5,0,14.482,0.395,19.961,0.878c0,0,20.816,1.834,33.762,7.005
		c32.848,13.115,53.849,42.049,52.646,82.622C2321.442,160.317,2312.643,184.201,2291.276,195.094z M2225.491,172.469
		c36.453,0,37.713-52.795,0-52.795h-33.574c-5.5,0-10,4.5-10,10v32.795c0,5.5,4.5,10,10,10H2225.491z M2225.491,287.273
		c45.25,0,44.414-60.752,0-60.752h-33.574c-5.5,0-10,4.5-10,10v40.752c0,5.5,4.5,10,10,10H2225.491z"/>
</g>
</svg>
