<?xml version="1.0" encoding="utf-8"?>
<!-- Generator: Adobe Illustrator 25.4.1, SVG Export Plug-In . SVG Version: 6.00 Build 0)  -->
<svg version="1.1" id="Layer_1" xmlns="http://www.w3.org/2000/svg" xmlns:xlink="http://www.w3.org/1999/xlink" x="0px" y="0px"
	 viewBox="0 0 159.6 22.1" style="enable-background:new 0 0 159.6 22.1;" xml:space="preserve">
<style type="text/css">
	.st0{fill:#000041;}
</style>
<path class="st0" d="M89.7,6.4c-2.1,0-3.8,0.8-4.7,2.4l-0.2-1.9h-3v14.8h3.6v-8.3c0-2.1,1-3.8,3.4-3.8c2.3,0,3.2,1.7,3.2,3.8v8.3
	h3.6v-9.3C95.5,9,93.6,6.4,89.7,6.4z"/>
<path class="st0" d="M68.3,12.8c0.5-1.8,1.9-3.1,4.2-3.1c2.2,0,3.6,1.4,3.9,3.1H68.3z M72.6,6.4c-4.7,0-7.9,3.5-7.9,7.8
	c0,4.1,2.9,7.9,8,7.9c3.4,0,6-1.7,7.1-4.4l-3.3-1.1c-0.6,1.4-2,2.2-3.8,2.2c-2.6,0-4-1.6-4.4-3.5H80C80.4,10.1,77.4,6.4,72.6,6.4"/>
<path class="st0" d="M61.3,0.2h-1.9l0,21.5h3.6l0-19.7C63.1,0.9,62.3,0.2,61.3,0.2z"/>
<path class="st0" d="M125.7,6.8h-4.3l-5.9,6.1l0-11c0-0.9-0.8-1.7-1.6-1.7h-1.9l0,21.4h3.6v-4.3l2.1-2.1l4.2,6.4h4.2l-5.9-8.9
	L125.7,6.8z"/>
<path class="st0" d="M145.9,9.1l-0.2-2.2h-3v14.8h3.6v-7.2c0-3,1.1-4.2,3.6-4.2h0.6V6.6C148.2,6.6,146.6,7.5,145.9,9.1z"/>
<path class="st0" d="M159.6,10V6.8h-4.1V2.2h-3.6v13.5c0,3.9,1.5,5.9,5.7,5.9h1.9v-3.3h-1.9c-1.4,0-2.2-0.7-2.2-2.2V10H159.6z"/>
<path class="st0" d="M132.8,18.9c-2.6,0-4.4-1.9-4.4-4.6c0-2.8,1.8-4.6,4.4-4.6c2.5,0,4.3,1.8,4.3,4.6
	C137.1,17,135.3,18.9,132.8,18.9z M137.3,8.9c-1.1-1.7-2.8-2.5-5-2.5c-4.4,0-7.5,3.1-7.5,7.8c0,4.7,3.1,7.9,7.5,7.9
	c2,0,3.6-0.7,4.6-2v1.5h3.6V6.9h-3L137.3,8.9z"/>
<path class="st0" d="M106,12.9l-2.8-0.4c-1.7-0.3-2.3-0.7-2.3-1.5c0-0.8,0.7-1.5,2.4-1.5c2.2,0,3.3,1.1,4,2.2l2.6-2
	c-1-1.8-2.9-3.4-6.1-3.4c-3.9,0-6.3,2-6.3,4.7c0,2.3,1.4,3.9,4.4,4.3l2.7,0.4c2,0.3,2.3,0.9,2.3,1.6c0,0.9-1,1.6-2.5,1.6
	c-2,0-3.7-0.9-4.8-2.8l-2.8,2c1.6,2.7,4.2,3.9,7.4,3.9c4.1,0,6.2-2.2,6.2-5C110.3,14.9,109.2,13.4,106,12.9z"/>
<path class="st0" d="M13.7,19.3c4.5-0.1,8.1-3.2,8.3-8c0.4,2,1.3,3.8,2.3,5.3c-2.7,2.1-5.3,3-7.9,3C15.4,19.6,14.6,19.5,13.7,19.3z"
	/>
<path class="st0" d="M51.9,10.9c0,0.4-0.3,0.8-0.7,0.8h-1l0-0.7c0.2-2.6-0.4-4.4-1.5-6l2.5,0.7c0.5,0.2,0.7,0.4,0.7,1.1V10.9z"/>
<path class="st0" d="M0,6.9c0-0.7,0.1-1,0.7-1.1L3.3,5c-1.2,1.7-1.8,4-1.7,6l0,0.7H0.7c-0.4,0-0.7-0.3-0.7-0.8V6.9z"/>
<path class="st0" d="M9.1,4.8c1.4-1.7,3.3-2.6,5.8-2.6c4.6,0,8.2,2.8,10,7.4l0.9,2.4c2.3,6,5.2,9,8.7,10.1c-5.4-0.8-9.6-4-11.4-9.3
	l-0.8-2.4c-1.7-4.9-4.4-7.2-8.6-7.2C12,3.2,10.3,3.8,9.1,4.8z"/>
<path class="st0" d="M40.4,0.6c5.4,0.7,9.2,4.8,9.2,9.6c0,4.2-3.2,7.7-7.5,8c2.9-1.8,4-4.2,4-7.4C46.1,6.1,43.9,2,40.4,0.6z"/>
<path class="st0" d="M31.4,0.3c-2.1,0.8-3.8,2.1-5.4,3.8c-2.1-2.1-3.4-2.9-5.8-3.7L31.4,0.3z"/>
<path class="st0" d="M26.4,4.6c2.8-3,6.4-4.6,9.5-4.6c3.9,0,7.7,2.5,9,7c-1.8-3-4.8-3.9-6.9-3.9c-4.3,0-8.1,3.6-8.1,8.1
	C28.9,7.9,27.5,5.6,26.4,4.6z"/>
<path class="st0" d="M2.3,11c0-6.5,5-11,12.3-11c6.7,0,11.9,3.6,14.2,9.8l0.7,1.9c1.9,5.2,5,7.6,9.5,7.6c3.4,0,7.3-1.1,9.3-3.5
	c-1.7,3.9-5.5,6.1-10.1,6.1c-5.3,0-9.1-3.5-11.4-9.5l-1-2.7C23.6,4.5,19.9,1.5,15,1.5c-5.5,0-9.3,3.9-9.3,9.4
	c0,5.6,4.1,9.4,10.3,9.4c2,0,3.8-0.4,5.5-1.2c-2,1.9-4.8,2.9-7.9,2.9C7.1,22,2.3,17.3,2.3,11z"/>
</svg>
